<svg width="27" height="26" viewBox="0 0 24 23" fill="none" xmlns="http://www.w3.org/2000/svg">
<path d="M20.0108 14.2747C18.3067 18.1956 13.3868 20.1044 8.99821 18.4861C4.60965 16.8679 2.47891 12.3591 4.18297 8.43827C5.88704 4.51744 10.807 2.60861 15.1956 4.22688C19.5841 5.84515 21.7149 10.3539 20.0108 14.2747Z" stroke="#646464" stroke-width="0.5"/>
<mask id="path-2-inside-1" fill="#646464">
<path fill-rule="evenodd" clip-rule="evenodd" d="M19.4477 11.346C19.4507 11.3393 19.4537 11.3326 19.4567 11.3258C19.7349 9.1123 17.2013 6.22873 14.3733 5.29549C11.8088 4.44921 8.5607 5.03326 6.97072 6.54456C6.93362 6.59687 6.9008 6.65168 6.87209 6.70881L19.4477 11.346Z"/>
</mask>
<path d="M19.4567 11.3258L19.9155 11.5244L19.9441 11.4587L19.953 11.3876L19.4567 11.3258ZM19.4477 11.346L19.2741 11.8149L19.7105 11.9758L19.9031 11.5524L19.4477 11.346ZM14.3733 5.29549L14.2159 5.77005L14.3733 5.29549ZM6.97072 6.54456L6.6261 6.18265L6.5908 6.2162L6.56263 6.25592L6.97072 6.54456ZM6.87209 6.70881L6.42507 6.48495L6.17414 6.98433L6.69847 7.17767L6.87209 6.70881ZM18.9978 11.1272C18.996 11.1314 18.9942 11.1355 18.9923 11.1397L19.9031 11.5524C19.9073 11.5431 19.9114 11.5338 19.9155 11.5244L18.9978 11.1272ZM14.2159 5.77005C15.5344 6.20513 16.8001 7.103 17.6992 8.15526C18.61 9.2211 19.0742 10.3581 18.9603 11.264L19.953 11.3876C20.1174 10.0801 19.4539 8.66849 18.4604 7.50585C17.4553 6.32962 16.0402 5.31909 14.5306 4.82092L14.2159 5.77005ZM7.31534 6.90647C8.01749 6.23907 9.12437 5.74645 10.391 5.52844C11.6521 5.31138 13.0212 5.3758 14.2159 5.77005L14.5306 4.82092C13.1608 4.3689 11.6236 4.3022 10.2221 4.54343C8.82607 4.7837 7.51393 5.33876 6.6261 6.18265L7.31534 6.90647ZM7.31912 6.93267C7.33672 6.89763 7.3566 6.86452 7.3788 6.8332L6.56263 6.25592C6.51065 6.32922 6.46487 6.40574 6.42507 6.48495L7.31912 6.93267ZM6.69847 7.17767L19.2741 11.8149L19.6213 10.8771L7.04571 6.23994L6.69847 7.17767Z" fill="#646464" mask="url(#path-2-inside-1)"/>
<mask id="path-4-inside-2" fill="#646464">
<path fill-rule="evenodd" clip-rule="evenodd" d="M4.81699 11.1938L17.314 15.7908C17.3097 15.8014 17.3053 15.812 17.3007 15.8226C16.2374 17.3856 12.5675 18.5063 9.43397 17.4232C6.38053 16.3678 4.86676 13.1921 4.81699 11.1938Z"/>
</mask>
<path d="M17.314 15.7908L17.7777 15.9778L17.9713 15.4998L17.4873 15.3218L17.314 15.7908ZM4.81699 11.1938L4.99027 10.7248L4.29856 10.4704L4.3169 11.2067L4.81699 11.1938ZM17.3007 15.8226L17.7143 16.1032L17.7409 16.0641L17.7597 16.0208L17.3007 15.8226ZM9.43397 17.4232L9.26997 17.8955L9.43397 17.4232ZM17.4873 15.3218L4.99027 10.7248L4.64371 11.6628L17.1407 16.2598L17.4873 15.3218ZM16.8503 15.6037C16.8475 15.6106 16.8446 15.6175 16.8417 15.6244L17.7597 16.0208C17.7659 16.0065 17.7719 15.9922 17.7777 15.9778L16.8503 15.6037ZM16.887 15.542C16.4567 16.1745 15.4161 16.8017 14.0292 17.1288C12.664 17.4508 11.0612 17.4566 9.59798 16.9509L9.26997 17.8955C10.9402 18.4728 12.7392 18.4598 14.2581 18.1015C15.7554 17.7484 17.0814 17.0336 17.7143 16.1032L16.887 15.542ZM9.59798 16.9509C8.19679 16.4666 7.13727 15.4919 6.41839 14.3891C5.69565 13.2803 5.33937 12.0756 5.31709 11.1808L4.3169 11.2067C4.34438 12.3103 4.76987 13.6926 5.57982 14.9351C6.39363 16.1835 7.61771 17.3244 9.26997 17.8955L9.59798 16.9509Z" fill="#646464" mask="url(#path-4-inside-2)"/>
<path d="M7.81431 10.3579C7.67157 10.6309 7.46926 10.8126 7.20738 10.9031C6.94672 10.994 6.66001 10.9818 6.34725 10.8665C6.00517 10.7404 5.78457 10.5288 5.68545 10.2317C5.58807 9.93393 5.62477 9.58859 5.79553 9.19569L5.86482 9.03627C5.97381 8.78548 6.11504 8.58122 6.28849 8.42348C6.46194 8.26574 6.65441 8.16698 6.86591 8.12719C7.07914 8.08666 7.29693 8.10739 7.51929 8.18938C7.82716 8.30291 8.04013 8.47497 8.15821 8.70557C8.27628 8.93616 8.28666 9.20256 8.18934 9.50476L7.63957 9.30204C7.69931 9.1287 7.70399 8.98909 7.65362 8.88322C7.60498 8.77661 7.49636 8.69222 7.32776 8.63005C7.14451 8.56247 6.97904 8.57628 6.83135 8.67146C6.68541 8.76591 6.55256 8.94763 6.43282 9.21662L6.34718 9.41366C6.22469 9.6955 6.17853 9.91749 6.2087 10.0796C6.24009 10.2423 6.34985 10.3582 6.538 10.4276C6.70782 10.4902 6.85061 10.4993 6.96639 10.4547C7.08391 10.4093 7.18329 10.3095 7.26454 10.1551L7.81431 10.3579ZM10.4723 11.7225L9.50835 11.3671L9.09153 11.8369L8.50694 11.6213L10.6338 9.3794L11.1432 9.56726L11.0084 12.5437L10.4238 12.3282L10.4723 11.7225ZM9.84598 10.9865L10.513 11.2325L10.602 10.1325L9.84598 10.9865ZM13.1414 12.264L12.742 13.183L12.1923 12.9803L13.3258 10.3721L14.3667 10.7559C14.5671 10.8298 14.7274 10.9305 14.8478 11.058C14.9694 11.186 15.0423 11.3313 15.0665 11.4941C15.0913 11.6556 15.0671 11.8206 14.9939 11.989C14.8828 12.2445 14.7053 12.4132 14.4613 12.4951C14.2191 12.5762 13.9398 12.5584 13.6234 12.4418L13.1414 12.264ZM13.3306 11.8287L13.8217 12.0098C13.9671 12.0635 14.0922 12.0708 14.197 12.0318C14.3031 11.9933 14.3831 11.912 14.4371 11.7878C14.4926 11.66 14.499 11.5425 14.4563 11.4353C14.4136 11.3281 14.3249 11.2483 14.1904 11.1959L13.6864 11.0101L13.3306 11.8287ZM17.2895 14.2363L16.3255 13.8809L15.9087 14.3507L15.3241 14.1351L17.4509 11.8932L17.9604 12.0811L17.8256 15.0575L17.241 14.842L17.2895 14.2363ZM16.6632 13.5003L17.3302 13.7463L17.4192 12.6464L16.6632 13.5003Z" fill="#646464"/>
</svg>